v -0.9484561682 -10.41624832 13.01998711
vn -0.5455403924 0.6309854984 0.5515822768
v 1.775095701 -15.84449959 21.92338181
vn -0.818934679 0.3433476985 0.4598460495
v -2.578457594 -19.16215515 8.83412075
vn -0.8987720609 -0.3626447022 0.2463689148
v -2.310702085 -19.31783485 9.673416138
vn -0.8917699456 -0.400719434 0.2101673335
v -0.9803380966 -10.352705 12.9157629
vn -0.626763463 0.5652433634 0.5363464952
v -1.081062436 -10.1519537 12.58649158
vn -0.1681720167 0.6301960945 -0.7580046654
v -1.562801003 -19.75268364 12.01775455
vn -0.524256587 -0.8245007992 0.2129636407
v -0.8434928656 -19.86651611 6.486360073
vn -0.05474582314 -0.9984961152 -0.002907592338
v 2.599241257 -17.48708534 24.61754608
vn -0.9105780721 0.164839074 0.3790457547
v 3.297364235 -18.87849998 26.8997364
vn -0.5909394622 0.5957233906 0.5439708233
v -0.214232862 -11.87961292 15.42019081
vn -0.9353500009 0.09124280512 0.3417530954
v 4.443526745 -17.70652008 26.05744362
vn 0.7766922116 0.6177157164 0.1231929734
v -1.673101068 -19.68855286 11.67201233
vn -0.8988112211 -0.3814255595 0.2159927934
v 0.6898059249 -13.68143272 18.37552834
vn -0.9290263653 0.1121958494 0.3525934219
v 0.04784791544 -12.40196037 16.27694321
vn -0.8892591 0.2155403942 0.4034360349
v 1.376161575 -19.51099968 6.589607239
vn -0.02774775773 0.3086105883 -0.9507836699
v 0.6790343523 -10.63246155 14.32059669
vn 0.7799088359 0.6142657399 0.1200825647
v 2.552551746 -17.39402962 24.46491623
vn -0.8805222511 0.2341717184 0.4121215343
v 4.910117149 -18.5833149 27.51216698
vn 0.6049306989 -0.7961049676 0.0166049134
v 2.605888128 -14.25331497 20.32809639
vn 0.7771303654 0.6172484159 0.1227714121
v 3.045054436 -19.51811218 26.18376541
vn -0.2009238899 -0.9727368355 0.1158131137
v -0.5748212934 -11.16093159 14.24141312
vn -0.9022505283 0.1856641471 0.3891950846
v 3.189784527 -19.46014214 26.62389183
vn 0.4322444499 -0.9017113447 0.009022547863
v 1.029259682 -19.83711624 20.00718689
vn -0.4979283214 -0.8423932791 0.2060119361
v 4.206604481 -18.75210571 6.912729263
vn 0.7561662197 0.5276622772 -0.3870209157
v 2.244814157 -13.5748024 19.20234871
vn 0.7989025712 0.5929003358 0.1011129916
v 4.780962944 -18.34061432 27.10949516
vn 0.7166495323 0.6746590137 0.1767727584
v 2.021365643 -13.15490818 18.50568581
vn 0.7779667377 0.6163541675 0.1219642758
v 3.127031803 -18.53901291 26.34291267
vn -0.5652668476 0.6160982847 0.548540175
v 3.492773056 -19.26796532 27.53853607
vn -0.4394773543 0.7009097934 0.5617696047
v 3.080357552 -18.4459877 26.19033432
vn -0.6527214646 0.541518271 0.5298232436
v 2.811482668 -17.91009903 25.31137085
vn -0.6538045406 0.5404966474 0.529531002
v 2.099471569 -16.49100685 22.98377991
vn -0.8304504752 0.325214982 0.4523132443
v 2.958505392 -18.20312691 25.79199409
vn -0.5848590136 0.6006549597 0.5451179147
v 3.03384614 -18.35328674 26.03828621
vn -0.5776098967 0.6064478755 0.5464318991
v 3.507855415 -19.29802513 27.58784103
vn 0.4536223114 -0.8911908269 0.002401223406
v 3.093192816 -19.50937271 26.33115768
vn 0.3420100808 -0.9386180639 0.04500272125
v 3.353810549 -19.37653923 27.12099075
vn 0.3825623393 -0.9234720469 0.02907602862
v -2.00630188 -19.34807205 6.87384367
vn -0.07167118788 0.4684963226 -0.880553484
v 3.089999914 -19.51099968 26.32148361
vn 0.03547805548 -0.9982361197 0.04760249704
v 1.601194263 -12.36534214 17.19568634
vn 0.7897423506 0.6034237742 0.1103938371
v 2.481887817 -17.25319099 24.23391151
vn -0.8655992746 0.2637942731 0.4256178141
v -0.4893139899 -11.33135509 14.52093983
vn -0.8279574513 0.3292130232 0.4539881945
v -1.830080986 -19.5972805 11.17995071
vn -0.8988113403 -0.3814254701 0.2159926146
v 0.2713237703 -12.84736538 17.00749397
vn -0.9126232862 0.1594862044 0.3764078319
v 3.142658234 -19.48416138 6.511301041
vn 0.302578032 -0.9531224966 -0.002008711221
v 1.164422989 -14.62738132 19.92706871
vn -0.9166354537 0.1486773044 0.3710451722
v 1.630460978 -15.5562315 21.45056534
vn -0.8897286057 0.2145083547 0.4029505253
v 0.3468565345 -12.99790764 17.2544136
vn -0.8687419891 0.2577623129 0.4229018688
v 0.8715798259 -14.04372215 18.96975517
vn -0.8558232188 0.2819298208 0.4336844087
v 1.278032541 -14.85381413 20.29846382
vn -0.8812784553 0.2325990349 0.4113951027
v 4.489011765 -18.79794502 13.77933121
vn 0.9906750321 0.1322194338 -0.03287803754
v 1.011547804 -11.2573061 15.3572998
vn 0.7936452627 0.5989918113 0.1064708307
v 3.767947912 -19.16546059 6.677333355
vn 0.5885884762 -0.8026900291 -0.09618907422
v 1.329379678 -11.85456085 16.34822845
vn 0.7901160717 0.6030026674 0.1100201681
v 1.006231904 -19.84076118 19.93662643
vn 0.2120950222 -0.9772097468 0.008763059042
v 0.9774394035 -19.83451271 19.84737587
vn -0.8732761145 -0.3856845796 0.2977184057
v 0.1892869174 -9.712151527 12.79367352
vn -0.05055915192 0.7581868768 -0.6500741243
v -1.074366093 -19.76358032 6.563293934
vn -0.4825944304 -0.7687782645 -0.4196219444
v 0.8177049756 -11.12624645 11.87373352
vn 0.4444955289 0.6188560128 -0.6476426125
v 4.512299538 -17.83575439 26.27186012
vn 0.7919243574 0.6009552479 0.1082063541
v 4.332317829 -17.49754143 25.71072006
vn 0.7206532955 0.671251893 0.1734350771
v 4.051773548 -16.97035599 24.83604431
vn 0.7901313305 0.6029853821 0.1100049317
v 3.045186758 -15.078825 21.69773102
vn 0.7670270205 0.6278101802 0.1323779672
v 2.216934204 -19.61659431 6.47816515
vn 0.04772240669 -0.9967426062 -0.06501360983
v 3.9597435 -16.79741669 24.54911423
vn 0.7547011375 0.6401257515 0.1437541544
v 2.423885345 -19.61641312 6.467133045
vn 0.1547900885 -0.9874141812 0.03245384246
v 3.089999914 -19.51099968 6.497318745
vn -0.02772311307 -0.9993482232 -0.02312079445
v 2.331682682 -19.63100433 6.462954998
vn 0.001590394648 -0.9999069571 0.01354636066
v 0.2277042121 -9.784343719 12.91345024
vn 0.8649091721 0.5013181567 0.02474342845
v 3.463577509 -15.86504555 23.0021801
vn 0.7888267636 0.60445261 0.1113077477
v -0.7114259005 -19.51099968 14.61625671
vn -0.8850213885 -0.3628306687 0.2917037606
v 0.7888601422 -19.86357117 19.26947594
vn -0.6029855013 -0.7765104175 0.1828662157
v 0.5802435875 -19.81454659 18.62244034
vn -0.7511321306 -0.6308866143 0.1943774223
v -3.156004429 -19.15730095 7.055294991
vn -0.3382822275 -0.9409968257 -0.009490142576
v 0.3363629282 -19.75723267 17.86603165
vn -0.80667454 -0.5491290092 0.2184799314
v -3.109307766 -18.95463371 7.179775715
vn -0.3855869174 0.5457808971 -0.7439394593
v -2.180042267 -14.92157841 9.656929016
vn -0.9609369636 0.2667447329 -0.073806867
v -1.945905089 -13.90541077 10.28107071
vn -0.9746698737 0.1024772376 0.1987889111
v -1.252255321 -10.89493847 12.13014126
vn -0.7715815902 0.4524390996 -0.4471696913
# mm_gid 0
g mmGroup0
f 65//65 69//69 72//72 
f 72//72 7//7 65//65 
f 16//16 65//65 7//7 
f 8//8 16//16 7//7 
f 7//7 13//13 8//8 
f 13//13 44//44 8//8 
f 44//44 4//4 8//8 
f 59//59 8//8 4//4 
f 4//4 3//3 59//59 
f 39//39 59//59 3//3 
f 39//39 3//3 75//75 
f 52//52 19//19 36//36 
f 52//52 36//36 38//38 
f 52//52 38//38 23//23 
f 46//46 52//52 23//23 
f 46//46 23//23 37//37 
f 37//37 40//40 46//46 
f 40//40 21//21 46//46 
f 21//21 24//24 46//46 
f 24//24 56//56 46//46 
f 68//68 46//46 56//56 
f 56//56 57//57 68//68 
f 57//57 73//73 68//68 
f 73//73 74//74 68//68 
f 74//74 76//76 68//68 
f 76//76 72//72 68//68 
f 67//67 68//68 72//72 
f 69//69 67//67 72//72 
f 52//52 46//46 54//54 
f 52//52 54//54 25//25 
# mm_gid 2
g mmGroup2
f 58//58 6//6 5//5 
f 70//70 58//58 5//5 
f 70//70 5//5 1//1 
f 17//17 70//70 1//1 
f 17//17 1//1 22//22 
f 17//17 22//22 43//43 
f 53//53 17//17 43//43 
f 53//53 43//43 11//11 
f 55//55 53//53 11//11 
f 55//55 11//11 15//15 
f 41//41 55//55 15//15 
f 41//41 15//15 45//45 
f 41//41 45//45 49//49 
f 28//28 41//41 49//49 
f 28//28 49//49 14//14 
f 26//26 28//28 14//14 
f 26//26 14//14 50//50 
f 20//20 26//26 50//50 
f 20//20 50//50 47//47 
f 20//20 47//47 51//51 
f 64//64 20//20 51//51 
f 64//64 51//51 48//48 
f 64//64 48//48 2//2 
f 71//71 64//64 2//2 
f 71//71 2//2 33//33 
f 66//66 71//71 33//33 
f 66//66 33//33 42//42 
f 63//63 66//66 42//42 
f 63//63 42//42 18//18 
f 63//63 18//18 9//9 
f 62//62 63//63 9//9 
f 62//62 9//9 32//32 
f 62//62 32//32 34//34 
f 12//12 62//62 34//34 
f 12//12 34//34 35//35 
f 61//61 12//12 35//35 
f 61//61 35//35 31//31 
f 61//61 31//31 29//29 
f 27//27 61//61 29//29 
f 27//27 29//29 10//10 
f 27//27 10//10 30//30 
f 19//19 27//27 30//30 
f 19//19 30//30 36//36 
# mm_gid 6
g mmGroup6
f 25//25 60//60 52//52 
f 70//70 52//52 60//60 
f 70//70 60//60 58//58 
f 52//52 70//70 17//17 
f 52//52 17//17 53//53 
f 52//52 53//53 55//55 
f 52//52 55//55 41//41 
f 52//52 41//41 28//28 
f 52//52 28//28 26//26 
f 52//52 26//26 20//20 
f 52//52 20//20 64//64 
f 52//52 64//64 71//71 
f 52//52 71//71 66//66 
f 52//52 66//66 63//63 
f 52//52 63//63 62//62 
f 52//52 62//62 12//12 
f 52//52 12//12 61//61 
f 52//52 61//61 27//27 
f 52//52 27//27 19//19 
# mm_gid 14
g mmGroup14
f 65//65 67//67 69//69 
f 39//39 75//75 77//77 
f 60//60 39//39 77//77 
f 60//60 77//77 78//78 
f 60//60 78//78 79//79 
f 60//60 79//79 80//80 
f 80//80 6//6 60//60 
f 58//58 60//60 6//6 
f 67//67 46//46 68//68 
f 67//67 54//54 46//46 
f 25//25 16//16 60//60 
f 60//60 16//16 39//39 
f 39//39 16//16 59//59 
f 59//59 16//16 8//8 
f 65//65 16//16 25//25 
f 65//65 25//25 54//54 
f 65//65 54//54 67//67 
# mm_gid 22
g mmGroup22
f 72//72 76//76 14//14 
f 72//72 14//14 49//49 
f 72//72 49//49 45//45 
f 72//72 45//45 15//15 
f 72//72 15//15 11//11 
f 79//79 72//72 11//11 
f 79//79 11//11 43//43 
f 79//79 43//43 22//22 
f 80//80 79//79 22//22 
f 80//80 22//22 1//1 
f 80//80 1//1 5//5 
f 6//6 80//80 5//5 
f 79//79 7//7 72//72 
f 79//79 78//78 7//7 
f 78//78 13//13 7//7 
f 78//78 44//44 13//13 
f 78//78 4//4 44//44 
f 78//78 3//3 4//4 
f 78//78 77//77 3//3 
f 77//77 75//75 3//3 
f 76//76 50//50 14//14 
f 76//76 47//47 50//50 
f 76//76 74//74 47//47 
f 74//74 51//51 47//47 
f 74//74 73//73 51//51 
f 73//73 57//57 51//51 
f 57//57 48//48 51//51 
f 57//57 24//24 48//48 
f 24//24 2//2 48//48 
f 24//24 33//33 2//2 
f 24//24 42//42 33//33 
f 24//24 18//18 42//42 
f 24//24 9//9 18//18 
f 24//24 21//21 9//9 
f 21//21 32//32 9//9 
f 21//21 34//34 32//32 
f 21//21 35//35 34//34 
f 21//21 31//31 35//35 
f 21//21 29//29 31//31 
f 21//21 40//40 29//29 
f 40//40 37//37 29//29 
f 37//37 23//23 29//29 
f 23//23 10//10 29//29 
f 23//23 38//38 10//10 
f 38//38 30//30 10//10 
f 38//38 36//36 30//30 
f 57//57 56//56 24//24 
