v 1.162685752 -0.1839983463 18.71178818
vn 0.04805413634 -0.5205809474 0.8524589539
v 0 2.980232239e-07 18.88969612
vn 0.0266552791 0.1133759171 0.9931945205
v -1.936599612 -0.3064715862 18.8019371
vn -0.08828277886 0.6073530912 0.7895115018
v -3.089999914 -0.48900038 18.74967194
vn -0.210919559 0.5490986705 0.8087049127
v -3.445257187 -0.6700691581 18.65534019
vn -0.4836831689 0.6354034543 0.6019244194
v -3.7581141 -0.8295273781 18.57226753
vn -0.8556963801 0.5160378814 0.03858276084
v -2.515703917 -3.625256062 16.75350571
vn -0.7741917372 -0.5489869118 0.3150245845
v 1.177020788 -0.1862666011 18.59012413
vn 0.3753421605 0.9239234328 -0.07405220717
v 1.175653219 -0.1860502362 18.58589172
vn 0.8046147823 0.5465645194 -0.2320823669
v 1.21381259 -0.1920887828 18.70396614
vn 0.404978931 0.9138111472 0.03067956679
v 0.4415175915 -0.06987124681 16.31429672
vn 0.4556305707 0.8758231997 -0.1591681093
v 0 2.980232239e-07 14.94813442
vn 0.6938624382 0.6658906341 -0.274125129
v -1.763702631 -0.3430229425 9.550077438
vn 0.5278071165 0.7759656906 -0.3453937769
v -1.636905789 -0.2590447664 9.932506561
vn 0.6488316059 0.7097802758 -0.2742799819
v -1.170307279 -0.1852035522 11.36220646
vn 0.870331943 0.3873958588 -0.3040505052
v -3.267759562 -0.5796018243 4.941371918
vn 0.6445720792 0.7125728726 -0.2770681381
v -4.269154072 -1.089995861 1.906533837
vn -0.7526262403 0.6582769752 -0.01500513591
v -1.868504882 -0.4124340415 9.233985901
vn 0.67583251 0.6911548376 -0.2560379207
v -1.687092662 -5.912946224 10.31659222
vn 0.5194044113 -0.6626885533 -0.5395024419
v -0.580568552 -7.979786873 13.92066383
vn -0.85805583 -0.5087161064 0.07034274191
v -4.041081429 -1.516006589 2.649392128
vn -0.8604543209 -0.5087797642 -0.02759476379
v -0.4570635557 -7.443769455 14.24989223
vn 0.9019149542 -0.3570687771 0.243004635
v -0.0006996275042 -5.463129044 15.46642685
vn 0.981261909 -0.165698275 -0.09833158553
v 0.8012341261 -1.982698441 17.60415077
vn 0.8812376261 -0.3776449263 0.2842614949
v 1.210876942 -0.2048301697 18.69614029
vn 0.9536241889 -0.2828887105 0.1028342322
v 0.8567892909 -1.741586685 17.75224495
vn 0.6582996845 -0.4982536137 0.5642560124
# mm_gid 0
g mmGroup0
f 1//1 8//8 9//9 
f 2//2 1//1 9//9 
f 2//2 9//9 11//11 
f 2//2 11//11 3//3 
f 1//1 10//10 8//8 
f 12//12 3//3 11//11 
f 3//3 12//12 4//4 
f 4//4 12//12 5//5 
f 5//5 12//12 6//6 
f 15//15 6//6 12//12 
f 14//14 6//6 15//15 
f 13//13 6//6 14//14 
f 6//6 13//13 18//18 
f 6//6 18//18 16//16 
f 6//6 16//16 17//17 
# mm_gid 3
g mmGroup3
f 7//7 6//6 21//21 
f 7//7 21//21 19//19 
f 7//7 19//19 20//20 
f 17//17 21//21 6//6 
# mm_gid 17
g mmGroup17
f 7//7 2//2 3//3 
f 7//7 3//3 4//4 
f 7//7 4//4 5//5 
f 7//7 5//5 6//6 
f 7//7 20//20 22//22 
f 7//7 22//22 23//23 
f 7//7 23//23 24//24 
f 7//7 24//24 26//26 
f 1//1 7//7 26//26 
f 1//1 26//26 25//25 
f 1//1 25//25 10//10 
f 7//7 1//1 2//2 
# mm_gid 30
g mmGroup30
f 8//8 10//10 25//25 
f 8//8 25//25 9//9 
f 25//25 26//26 9//9 
f 26//26 11//11 9//9 
f 26//26 24//24 11//11 
f 24//24 12//12 11//11 
f 23//23 15//15 12//12 
f 24//24 23//23 12//12 
f 23//23 19//19 15//15 
f 19//19 14//14 15//15 
f 19//19 13//13 14//14 
f 19//19 18//18 13//13 
f 21//21 17//17 16//16 
f 19//19 21//21 16//16 
f 19//19 16//16 18//18 
f 23//23 22//22 19//19 
f 22//22 20//20 19//19 
