v -3.91417408 -2.001119852 1.225332552e-16
vn -0.02098058909 0.4403226674 -0.8975944519
v -2.00630188 -19.34807205 6.87384367
vn -0.02199184522 -0.6744189858 0.7380213141
v -3.634468317 -2.597361565 1.590425325e-16
vn 0.02565649338 0.01203581877 -0.9995983839
v 0.1892869174 -9.712151527 12.79367352
vn 0.3115294278 0.4219439924 0.8514180183
v -0.05463711172 -10.22840786 6.263093432e-16
vn 0.7353823781 0.3449782431 -0.5832690001
v -3.184571028 -3.556397438 2.177665327e-16
vn 0.7815665603 0.3666438758 -0.5047038198
v -3.717508554 -2.420346498 1.482034754e-16
vn 0.2215533853 0.1039339304 -0.9695936441
v -3.495179653 -2.894280195 1.772235521e-16
vn 0.06470575184 0.03035437502 -0.9974426031
v -1.823552251 -5.929718018 6.518091679
vn 0.8075101376 0.5826110244 0.09215065092
v -2.089206934 -5.430512428 5.689838886
vn 0.7882456183 0.6051035523 0.1118863225
v 0.8177049756 -11.12624645 11.87373352
vn 0.2981210053 -0.4238938093 0.8552414179
v 4.066481113 -19.01330185 1.164228998e-15
vn 0.9660961628 0.1530027688 -0.2079624981
v 4.147622108 -18.74253082 5.47859621
vn 0.9862323999 0.1636035293 -0.02407356352
v 2.428063869 -15.5207262 9.503703315e-16
vn 0.500264585 0.2346811295 -0.8334627151
v 2.444208622 -15.55514145 9.524777495e-16
vn 0.7128625512 0.3344158828 -0.6164357066
v 2.455982924 -15.58024025 9.540145849e-16
vn 0.01958540455 0.009187815711 -0.9997659922
v 2.473335028 -15.61722946 9.56279551e-16
vn 0.8814524412 0.4135018587 -0.2281618714
v 2.465349674 -15.60020733 9.552371711e-16
vn 0.8814540505 0.413498491 -0.2281617075
v -3.862425804 -2.098362446 0.1613393426
vn -0.1098514274 0.8353095055 0.5386935472
v -3.822432041 -2.173516273 0.2860298753
vn 0.4324268401 0.8268347383 0.3596544862
v -0.4657250643 -8.481283188 10.7514925
vn 0.8167302012 0.5711246133 0.08227031678
v -0.1593853682 -9.05694294 11.70659161
vn 0.8530455828 0.5203018188 0.03999048471
v -3.089999914 -19.51099968 1.194704185e-15
vn -0.1543052346 -0.5555956364 -0.8170087934
v -0.9834886193 -7.50832653 9.137221336
vn 0.8868125677 0.4620912969 -0.005924812052
v 0 -20 1.2246468e-15
vn 0.03845655173 -0.9010301232 -0.4320484102
v 3.089999914 -19.51099968 1.194704185e-15
vn 0.2437054664 -0.9143998027 -0.3232345879
v 4.167834282 -18.74581146 5.97003746
vn 0.908076942 0.4173748791 -0.03456071764
v -1.515083313 -6.509378433 7.479827881
vn 0.8042605519 0.5865430236 0.09556297213
v 2.216934204 -19.61659431 6.47816515
vn -0.09942266345 -0.9790679812 0.1775978357
v 1.376161575 -19.51099968 6.589607239
vn 0.08297295868 -0.7961135507 0.5994319916
v 2.331682682 -19.63100433 6.462954998
vn -5.469691473e-07 -0.9998672009 -0.01629791036
v -0.8434928656 -19.86651611 6.486360073
vn -0.04275180399 -0.998665452 0.02897539362
v 2.423885345 -19.61641312 6.467133045
vn 0.1539306492 -0.9868444204 0.04943064228
v 3.089999914 -19.51099968 6.497318745
vn 0.1808065027 -0.9835152626 0.002591753844
v 3.767947912 -19.16546059 6.677333355
vn 0.5493001938 -0.8332024813 0.06358386576
v 4.206604481 -18.75210571 6.912729263
vn 0.3738276362 -0.5023187399 0.7796978951
v 3.142658234 -19.48416138 6.511301041
vn 0.4472264647 -0.8938660622 0.03149429709
v -1.074366093 -19.76358032 6.563293934
vn -0.3329865336 -0.9155252576 0.2256844044
v -2.956929922 -6.413202763 6.454208374
vn -0.8693261743 0.256629318 0.4223901033
v -3.174895525 -5.978781223 5.741671562
vn -0.9011374116 0.188340202 0.3904860914
v -2.704682112 -6.915953159 7.278816223
vn -0.9442524314 0.05782767758 0.3241037726
v -4.613741398 -3.111048698 1.03802824
vn -0.7685228586 0.4142249525 0.4876374304
v -4.720841885 -2.897589207 0.6879124045
vn -0.8667159677 0.2616625428 0.4246599972
v -4.753014565 -2.833466053 0.5827385187
vn -0.8667160869 0.2616626024 0.4246597588
v -4.905439854 -2.529670954 0.08445471525
vn -0.8471859694 0.2972333133 0.4403728545
v -4.931274891 -2.47818017 1.517447746e-16
vn -0.08321592212 0.05510341004 -0.9950069189
v -5.031378746 -5.713755131 3.498665883e-16
vn -0.9979251623 0.0308744777 0.05649938434
v -5.057039738 -6.543154716 4.006526721e-16
vn -0.9647567868 0.02984856814 -0.2614449263
v -5.321355343 -15.08637524 9.237740264e-16
vn -0.9706843495 0.03003171086 -0.2384741902
v -5.114622593 -8.404358864 5.146185729e-16
vn -0.9865813851 0.03052346222 -0.1603917927
v -5.067075729 -6.867545605 4.205158859e-16
vn -0.9994133115 0.03092039749 0.01472933684
v -5.394071102 -17.43669128 1.067689371e-15
vn -0.8263997436 0.02556779794 -0.5625030994
v -5.421482563 -18.32267952 1.121940561e-15
vn -0.3256309032 -0.3616998196 -0.8735775948
v -5.082958698 -7.380914688 4.519506815e-16
vn -0.3013260961 0.00932256598 -0.9534755945
v -3.79448843 -19.15193367 5.088785172
vn -0.9486854076 -0.126986891 0.28960374
v -3.156004429 -19.15730095 7.055294991
vn -0.1828538626 -0.9802392721 0.07546774298
v -1.270260811 -9.774867058 11.96799469
vn -0.5583559871 0.6213875413 0.5496509075
v -1.438315153 -9.439921379 11.41861916
vn -0.5909618735 0.5957047939 0.5439667702
v -2.182877064 -7.955951691 8.984617233
vn -0.8893718123 0.2152929008 0.4033195972
v -2.621845007 -7.081054211 7.549613953
vn -0.9299951792 0.1091056168 0.3510056734
v -1.081062436 -10.1519537 12.58649158
vn -0.1657288373 -0.321100533 0.9324314594
v -1.757754326 -8.803254128 10.37436008
vn -0.9103876352 0.1653323174 0.3792881966
v -1.252255321 -10.89493847 12.13014126
vn -0.6581473947 -0.2780881226 0.6996492147
v -3.109307766 -18.95463371 7.179775715
vn -0.6974615455 -0.2514656484 0.6710532308
v -2.180042267 -14.92157841 9.656929016
vn -0.8629049063 -0.1048272699 0.4943747222
v -1.945905089 -13.90541077 10.28107071
vn -0.7906218767 -0.1777254045 0.5859443545
v -3.622839212 -11.92687511 4.929023743
vn -0.9506887794 0.02941304818 0.3087486625
# mm_gid 0
g mmGroup0
f 23//23 2//2 56//56 
f 23//23 56//56 55//55 
f 23//23 55//55 53//53 
f 5//5 23//23 53//53 
f 5//5 53//53 52//52 
f 52//52 49//49 5//5 
f 49//49 50//50 5//5 
f 50//50 54//54 5//5 
f 6//6 5//5 54//54 
f 54//54 51//51 6//6 
f 51//51 48//48 6//6 
f 8//8 6//6 48//48 
f 48//48 47//47 8//8 
f 3//3 8//8 47//47 
f 47//47 46//46 3//3 
f 7//7 3//3 46//46 
f 1//1 7//7 46//46 
f 5//5 14//14 23//23 
f 25//25 23//23 14//14 
f 14//14 15//15 25//25 
f 15//15 16//16 25//25 
f 26//26 25//25 16//16 
f 26//26 16//16 18//18 
f 26//26 18//18 17//17 
f 26//26 17//17 12//12 
f 26//26 12//12 13//13 
f 26//26 13//13 27//27 
f 26//26 27//27 36//36 
f 26//26 36//36 35//35 
f 26//26 35//35 37//37 
f 26//26 37//37 34//34 
f 26//26 34//34 33//33 
f 26//26 33//33 31//31 
f 26//26 31//31 29//29 
f 26//26 29//29 30//30 
f 25//25 26//26 30//30 
f 25//25 30//30 32//32 
f 25//25 32//32 23//23 
f 38//38 23//23 32//32 
f 2//2 23//23 38//38 
# mm_gid 2
g mmGroup2
f 19//19 1//1 46//46 
f 19//19 46//46 45//45 
f 19//19 45//45 20//20 
f 4//4 22//22 57//57 
f 4//4 57//57 61//61 
f 22//22 58//58 57//57 
f 22//22 21//21 58//58 
f 21//21 62//62 58//58 
f 21//21 59//59 62//62 
f 21//21 24//24 59//59 
f 24//24 60//60 59//59 
f 28//28 39//39 41//41 
f 28//28 41//41 60//60 
f 24//24 28//28 60//60 
f 28//28 9//9 39//39 
f 9//9 40//40 39//39 
f 44//44 20//20 45//45 
f 20//20 44//44 43//43 
f 20//20 43//43 42//42 
f 10//10 20//20 42//42 
f 10//10 42//42 40//40 
f 9//9 10//10 40//40 
# mm_gid 6
g mmGroup6
f 7//7 19//19 20//20 
f 7//7 20//20 3//3 
f 3//3 20//20 8//8 
f 8//8 20//20 6//6 
f 6//6 20//20 10//10 
f 6//6 10//10 5//5 
f 5//5 10//10 9//9 
f 5//5 9//9 28//28 
f 5//5 28//28 24//24 
f 5//5 24//24 27//27 
f 5//5 27//27 14//14 
f 27//27 11//11 36//36 
f 27//27 22//22 11//11 
f 4//4 11//11 22//22 
f 27//27 24//24 21//21 
f 27//27 21//21 22//22 
f 14//14 27//27 13//13 
f 14//14 13//13 15//15 
f 15//15 13//13 16//16 
f 16//16 13//13 18//18 
f 18//18 13//13 17//17 
f 17//17 13//13 12//12 
f 7//7 1//1 19//19 
# mm_gid 18
g mmGroup18
f 11//11 63//63 66//66 
f 11//11 66//66 65//65 
f 2//2 11//11 65//65 
f 2//2 65//65 64//64 
f 2//2 64//64 56//56 
f 38//38 32//32 30//30 
f 2//2 38//38 30//30 
f 11//11 2//2 30//30 
f 36//36 11//11 30//30 
f 29//29 36//36 30//30 
f 29//29 35//35 36//36 
f 29//29 33//33 35//35 
f 33//33 37//37 35//35 
f 33//33 34//34 37//37 
f 29//29 31//31 33//33 
f 11//11 4//4 61//61 
f 11//11 61//61 63//63 
# mm_gid 23
g mmGroup23
f 57//57 63//63 61//61 
f 58//58 63//63 57//57 
f 62//62 63//63 58//58 
f 62//62 66//66 63//63 
f 59//59 66//66 62//62 
f 60//60 65//65 59//59 
f 59//59 65//65 66//66 
f 65//65 60//60 67//67 
f 55//55 65//65 67//67 
f 55//55 67//67 49//49 
f 55//55 49//49 52//52 
f 55//55 52//52 53//53 
f 50//50 49//49 67//67 
f 50//50 67//67 41//41 
f 39//39 50//50 41//41 
f 41//41 67//67 60//60 
f 39//39 40//40 50//50 
f 50//50 40//40 54//54 
f 54//54 40//40 51//51 
f 51//51 40//40 48//48 
f 48//48 40//40 47//47 
f 47//47 40//40 42//42 
f 47//47 42//42 43//43 
f 47//47 43//43 44//44 
f 47//47 44//44 45//45 
f 47//47 45//45 46//46 
f 65//65 55//55 64//64 
f 64//64 55//55 56//56 
