v 1.263419271 -0.1999387145 18.69637489
vn 0.4154472053 0.9091011882 0.03063784726
v 0.1706194133 -9.670145035 12.82100105
vn -0.8778738976 -0.4648948312 0.1149355397
v -3.91417408 -2.001119852 1.225332552e-16
vn 0.02036954463 -0.5156877041 -0.856534481
v -3.991868973 -1.835497856 1.123918224e-16
vn -0.1396139115 -0.06549481302 -0.9880376458
v 0.6751784086 -9.543932915 12.87291813
vn 0.3509855568 -0.9101715088 -0.2199930102
v -3.521449804 -1.816916466 1.112540454e-16
vn 0.3255926967 -0.6941687465 -0.6419650316
v -3.822432041 -2.173516273 0.2860298753
vn 0.2676499486 -0.7848556042 -0.5588963628
v -3.862425804 -2.098362446 0.1613393426
vn 0.0336211957 -0.851174593 -0.5238047838
v 4.005726337 -8.390877724 13.41609859
vn 0.1122414768 -0.669926703 0.7338937521
v 0.1892869174 -9.712151527 12.79367352
vn -0.7869317532 -0.6085780263 -0.1018388271
v 0 2.980232239e-07 -1.824865937e-23
vn -0.07946214825 0.9967428446 0.0137627637
v 0.1381915808 -0.1003992558 6.147681172e-18
vn 0.3395765722 -0.7239851356 -0.6004442573
v 0.2080874145 -0.06761550903 4.140255687e-18
vn 0.3395774662 -0.7239839435 -0.6004451513
v 2.562284231 -0.789000988 18.25731468
vn 0.455242604 0.872867465 0.1756602675
v 0.08953211457 -0.1232230663 7.545236318e-18
vn 0.339582026 -0.7239778638 -0.6004499197
v 0.06794285029 -0.1333492994 8.165289251e-18
vn 0.3395786881 -0.7239823341 -0.6004464626
v -0.1106145754 -0.2170994878 1.329350961e-17
vn 0.2690843642 -0.5736922026 -0.7736089826
v 0.2633816302 -0.041680336 2.55218451e-18
vn 0.3024618626 0.9308253527 -0.2051365823
v 2.866672993 -0.4536587 2.168223619
vn 0.6082262397 0.4774722159 -0.6340987086
v 2.901288271 -0.9427461028 18.14271927
vn 0.2929399908 0.299261421 0.9080907106
v -1.633388042 -6.061217785 9.89939785
vn -0.9047970772 -0.4244530201 0.0343786031
v -0.1593853682 -9.05694294 11.70659161
vn 0.2666762173 -0.7852430344 -0.558817625
v -1.823552251 -5.929718018 6.518091679
vn 0.255836308 -0.7894902229 -0.5579004884
v -2.089206934 -5.430512428 5.689838886
vn 0.0190710891 -0.8535907865 -0.5205949545
v -0.06333711743 -0.1949247718 1.193570008e-17
vn 0.3395757079 -0.723986268 -0.6004433632
v 3.089999914 -0.48900038 2.354227543
vn 0.2145339102 0.9767150283 -0.001734242542
v 0.04658446833 -0.1433673501 8.778718121e-18
vn 0.3395782411 -0.7239828706 -0.6004459858
v 0.02435654961 -0.1537930965 9.417111303e-18
vn 0.3395707011 -0.7239929438 -0.600438118
v -0.4657250643 -8.481283188 10.7514925
vn 0.1846237034 -0.8144375086 -0.550096035
v -3.089999914 -0.48900038 2.994263785e-17
vn -0.2172840089 0.8397277594 -0.497639358
v -1.515083313 -6.509378433 7.479827881
vn 0.171478793 -0.818494916 -0.5483257174
v -0.9834886193 -7.50832653 9.137221336
vn 0.2661090493 -0.7854683399 -0.5587714314
v -4.327616215 -1.119793415 6.856756854e-17
vn -0.9340419173 -0.3571431339 0.003805364249
v 0 -0.1652166247 1.011660087e-17
vn 0.3395762444 -0.7239855528 -0.6004438996
v 5.382374287 -1.657387614 5.333133698
vn 0.7689169645 -0.1009960175 -0.6313212514
v 8.090000153 -4.122000217 10.29168701
vn 0.6966999769 -0.4392145276 -0.5671858191
v 8.665465355 -5.251061916 12.14915752
vn 0.535548985 -0.6377588511 -0.5535801649
v 5.877999783 -1.909999847 5.977191925
vn 0.371065259 0.9285787344 -0.007220827974
v 6.392747402 -2.42474699 6.98120451
vn 0.8126021624 -0.2310431451 -0.5350670815
v -0.02826546505 -0.1784747839 1.092842901e-17
vn 0.3395809829 -0.7239792347 -0.6004488468
v 0.1688375622 -0.08602529764 5.267530395e-18
vn 0.3395762146 -0.7239856124 -0.6004438996
v 0.1124661788 -0.11246562 6.886532958e-18
vn 0.3395826817 -0.7239769697 -0.600450635
v 9.326839447 -6.548676491 14.2839222
vn 0.5863549113 -0.7747415304 0.2365660667
v 8.132608414 -4.612379074 15.561553
vn 0.557294488 -0.1896663457 0.8083622456
v 7.411999226 -3.443999529 16.33248711
vn 0.7260497212 0.6852011085 0.05788992345
v 6.464530945 -2.940934181 16.6987381
vn 0.6939509511 0.4384598732 0.5711261034
v 4.858825684 -1.525712609 17.67201042
vn 0.5653914213 0.07670464367 0.8212484121
v 4.495159149 -1.205187798 17.8924408
vn 0.4048558176 0.91436553 0.005236471072
v 1.177020788 -0.1862666011 18.59012413
vn 0.1553854346 0.9878538847 0.0003023016325
v 1.175653219 -0.1860502362 18.58589172
vn -0.07505216449 0.9943467975 0.07511051744
v 1.21381259 -0.1920887828 18.70396614
vn 0.03505748138 -0.420124203 0.9067891836
v 0.4415175915 -0.06987124681 16.31429672
vn -0.09917232394 0.9916222095 0.08276641369
v 0 2.980232239e-07 14.94813442
vn -0.6729825139 0.7114055157 0.2024764717
v -1.763702631 -0.3430229425 9.550077438
vn -0.836876452 0.5226526856 0.1627019048
v -1.636905789 -0.2590447664 9.932506561
vn -0.1508106291 0.9843008518 0.09169513732
v -1.170307279 -0.1852035522 11.36220646
vn -0.8118317723 0.5334519744 0.2373987585
v -3.267759562 -0.5796018243 4.941371918
vn -0.78767699 0.5812224746 0.2043168545
v -4.269154072 -1.089995861 1.906533837
vn -0.364567399 0.9306484461 0.03137023002
v -1.868504882 -0.4124340415 9.233985901
vn -0.7675915956 0.6021473408 0.2195944637
v -1.687092662 -5.912946224 10.31659222
vn -0.9636006355 -0.06269697845 0.2598901689
v -0.580568552 -7.979786873 13.92066383
vn -0.5660047531 -0.5523555279 0.6119983196
v -4.041081429 -1.516006589 2.649392128
vn -0.9663095474 -0.1309570968 0.2215764523
v -0.4570635557 -7.443769455 14.24989223
vn -0.5590624809 -0.3365924358 0.7577299476
v -0.0006996275042 -5.463129044 15.46642685
vn -0.811172545 -0.158796072 0.5628347397
v 0.8012341261 -1.982698441 17.60415077
vn -0.3187735975 -0.4416561425 0.8386436701
v 1.210876942 -0.2048301697 18.69614029
vn -0.02338609286 -0.5193116665 0.8542648554
v 0.8567892909 -1.741586685 17.75224495
vn -0.636329174 -0.29195261 0.7140370607
# mm_gid 0
g mmGroup0
f 45//45 44//44 36//36 
f 36//36 46//46 45//45 
f 37//37 44//44 43//43 
f 30//30 33//33 58//58 
f 30//30 58//58 11//11 
f 30//30 11//11 17//17 
f 30//30 17//17 6//6 
f 30//30 6//6 4//4 
f 30//30 4//4 33//33 
f 6//6 3//3 4//4 
f 11//11 19//19 18//18 
f 11//11 18//18 13//13 
f 11//11 13//13 41//41 
f 11//11 41//41 12//12 
f 11//11 12//12 42//42 
f 11//11 42//42 15//15 
f 11//11 15//15 16//16 
f 11//11 16//16 27//27 
f 11//11 27//27 28//28 
f 11//11 28//28 34//34 
f 11//11 34//34 40//40 
f 11//11 40//40 25//25 
f 11//11 25//25 17//17 
f 11//11 55//55 19//19 
f 19//19 55//55 26//26 
f 35//35 26//26 1//1 
f 35//35 1//1 14//14 
f 14//14 20//20 35//35 
f 38//38 35//35 20//20 
f 38//38 20//20 48//48 
f 39//39 38//38 48//48 
f 39//39 48//48 47//47 
f 47//47 46//46 39//39 
f 36//36 39//39 46//46 
f 37//37 36//36 44//44 
f 57//57 11//11 58//58 
f 11//11 57//57 59//59 
f 11//11 59//59 54//54 
f 11//11 54//54 55//55 
f 56//56 26//26 55//55 
f 53//53 26//26 56//56 
f 52//52 26//26 53//53 
f 50//50 26//26 52//52 
f 1//1 49//49 51//51 
f 1//1 26//26 49//49 
f 26//26 50//50 49//49 
# mm_gid 1
g mmGroup1
f 37//37 43//43 9//9 
f 37//37 9//9 5//5 
f 22//22 37//37 5//5 
f 22//22 5//5 10//10 
f 35//35 23//23 24//24 
f 24//24 7//7 35//35 
f 6//6 35//35 7//7 
f 6//6 7//7 8//8 
f 6//6 8//8 3//3 
f 19//19 35//35 6//6 
f 19//19 6//6 17//17 
f 19//19 17//17 25//25 
f 19//19 25//25 40//40 
f 19//19 40//40 34//34 
f 19//19 34//34 28//28 
f 19//19 28//28 27//27 
f 19//19 27//27 16//16 
f 19//19 16//16 15//15 
f 19//19 15//15 42//42 
f 19//19 42//42 12//12 
f 19//19 12//12 41//41 
f 19//19 41//41 13//13 
f 19//19 13//13 18//18 
f 19//19 26//26 35//35 
f 39//39 36//36 32//32 
f 39//39 32//32 31//31 
f 39//39 31//31 23//23 
f 35//35 39//39 23//23 
f 39//39 35//35 38//38 
f 36//36 29//29 32//32 
f 36//36 22//22 29//29 
f 36//36 37//37 22//22 
# mm_gid 3
g mmGroup3
f 21//21 22//22 10//10 
f 21//21 10//10 2//2 
f 21//21 2//2 60//60 
f 33//33 21//21 60//60 
f 33//33 60//60 62//62 
f 33//33 62//62 58//58 
f 33//33 4//4 7//7 
f 33//33 7//7 24//24 
f 33//33 24//24 21//21 
f 23//23 21//21 24//24 
f 4//4 3//3 8//8 
f 4//4 8//8 7//7 
f 31//31 21//21 23//23 
f 32//32 21//21 31//31 
f 29//29 21//21 32//32 
f 22//22 21//21 29//29 
f 61//61 60//60 2//2 
# mm_gid 17
g mmGroup17
f 46//46 44//44 45//45 
f 46//46 9//9 44//44 
f 44//44 9//9 43//43 
f 47//47 9//9 46//46 
f 20//20 9//9 47//47 
f 20//20 47//47 48//48 
f 9//9 20//20 65//65 
f 9//9 65//65 64//64 
f 64//64 63//63 9//9 
f 63//63 61//61 9//9 
f 5//5 9//9 61//61 
f 2//2 5//5 61//61 
f 20//20 67//67 65//65 
f 20//20 14//14 67//67 
f 14//14 66//66 67//67 
f 14//14 1//1 51//51 
f 14//14 51//51 66//66 
f 10//10 5//5 2//2 
# mm_gid 24
g mmGroup24
f 63//63 60//60 61//61 
f 64//64 60//60 63//63 
f 64//64 56//56 60//60 
f 60//60 56//56 55//55 
f 60//60 55//55 54//54 
f 60//60 54//54 59//59 
f 60//60 59//59 57//57 
f 60//60 57//57 62//62 
f 62//62 57//57 58//58 
f 64//64 53//53 56//56 
f 65//65 53//53 64//64 
f 65//65 52//52 53//53 
f 67//67 50//50 52//52 
f 67//67 52//52 65//65 
f 66//66 50//50 67//67 
f 49//49 50//50 66//66 
f 49//49 66//66 51//51 
