v -9.51099968 -6.909999847 4.231154565e-16
vn -0.5463974476 0.1808145046 -0.8177750111
v -8.090000153 -4.122000217 2.523997247e-16
vn -0.03281028569 0.01831198856 -0.9992938042
v -7.784418106 -3.816417933 2.33688211e-16
vn -0.01005123369 0.0183209274 -0.9997816086
v -8.090000153 -4.122000217 0.2154278755
vn -0.721562326 0.6390524507 0.2663827837
v -9.513933182 -13.07146358 11.2111702
vn -0.5778031945 0.628157258 0.5211160779
v -9.505231857 -13.10131645 11.19199467
vn -0.9676760435 -0.2445353419 -0.06168922782
v -7.856436253 -15.6792345 9.487833977
vn -0.4363945127 -0.6731345057 0.5970341563
v -9.493447304 -13.11415768 11.18331432
vn -0.8231601715 -0.5648368597 0.05802269652
v -9.281146049 -12.99087143 11.24913502
vn -0.2217707187 0.1900330335 0.9564022422
v -9.391277313 -13.02899933 11.23117447
vn -0.3498610556 0.7398579121 0.5746368766
v -9.51099968 -13.09000015 8.015313432e-16
vn -0.9633291364 -0.2683226168 3.336148451e-17
v -10 -10 6.123233998e-16
vn -0.9707740545 0.03357030079 -0.237635836
v -6.051160812 -3.003451586 1.839083626e-16
vn -0.1902494431 0.4056147635 -0.8940256238
v -9.51099968 -6.909999847 3.032208681
vn -0.9828111529 0.1845893413 -0.002992920345
v -9.379701614 -6.652393818 2.771943092
vn -0.613889873 0.6697258949 0.4178593457
v -10 -10 6.830378532
vn -0.9510500431 -0.3058938086 0.04396402836
v -9.901177406 -9.37553215 6.062794685
vn -0.6392791271 0.6142460704 0.4626272321
v -8.090000153 -15.87800026 9.72247075e-16
vn -0.6929078102 -0.4159544408 -0.5889487863
v -5.877999783 -18.09000015 1.107693043e-15
vn -0.6623056531 -0.7491667867 -0.01001822576
v -9.869491577 -10.82468128 8.00661087
vn -0.7004231811 0.5455431342 0.4602065086
v -7.093853951 -16.87414551 8.698014259
vn -0.6553843021 -0.7546197772 0.03194266185
v -4.08707428 -19.00280762 7.202240944
vn -0.4986301363 -0.864995122 0.05613777786
v -4.869614124 -18.32674026 7.668016911
vn -0.3634177446 -0.7759080529 0.5156493783
v -5.66186285 -17.64228439 8.139572144
vn -0.3340341747 -0.7729659081 0.5393930078
v -2.74524641 -10.72810459 12.31507874
vn -0.1434578598 -0.05121092871 0.988330543
v -2.956929922 -6.413202763 6.454208374
vn 0.3464645445 0.8443114758 0.4087792039
v -3.174895525 -5.978781223 5.741671562
vn 0.4061054587 0.8301882148 0.3819239736
v -2.704682112 -6.915953159 7.278816223
vn 0.9666857719 0.1673610806 -0.1936721504
v -4.613741398 -3.111048698 1.03802824
vn -0.1123495698 0.8327726722 0.5420952439
v -4.720841885 -2.897589207 0.6879124045
vn 0.1248837858 0.8636611104 0.4883580208
v -4.753014565 -2.833466053 0.5827385187
vn -0.1460233927 0.824189961 0.5471636653
v -4.905439854 -2.529670954 0.08445471525
vn 0.9335506558 0.3512588739 -0.07141707838
v -4.931274891 -2.47818017 1.517447746e-16
vn 0.01028992608 0.003871699562 -0.9999395609
v -5.031378746 -5.713755131 3.498665883e-16
vn 0.7796139717 -0.02412022091 -0.625795722
v -5.057039738 -6.543154716 4.006526721e-16
vn 0.7796142101 -0.02412045002 -0.625795424
v -5.321355343 -15.08637524 9.237740264e-16
vn 0.8455295563 -0.02615958452 -0.533287406
v -5.114622593 -8.404358864 5.146185729e-16
vn 0.8624150753 -0.02668192983 -0.5054980516
v -5.067075729 -6.867545605 4.205158859e-16
vn 0.7796139121 -0.02412012406 -0.6257957816
v -5.394071102 -17.43669128 1.067689371e-15
vn 0.7452853918 -0.02305821888 -0.6663467884
v -5.421482563 -18.32267952 1.121940561e-15
vn 0.03749959543 -0.9750429392 -0.2188265175
v -5.082958698 -7.380914688 4.519506815e-16
vn 0.7796139121 -0.02412005514 -0.6257958412
v -3.79448843 -19.15193367 5.088785172
vn 0.9437702894 -0.1005452201 -0.3149418235
v -3.156004429 -19.15730095 7.055294991
vn 0.05398317799 -0.9443026185 0.3246202767
v -1.270260811 -9.774867058 11.96799469
vn 0.1558671445 0.863863945 0.479003638
v -1.438315153 -9.439921379 11.41861916
vn -0.3012348115 0.7704307437 0.5618665814
v -2.182877064 -7.955951691 8.984617233
vn 0.4734143317 0.8090020418 0.3484173119
v -2.621845007 -7.081054211 7.549613953
vn 0.7490999699 0.6422392726 0.1624127775
v -1.081062436 -10.1519537 12.58649158
vn 0.1374890655 0.1440741718 0.9799690843
v -1.757754326 -8.803254128 10.37436008
vn 0.4236866534 0.8252137303 0.3735129833
v -1.252255321 -10.89493847 12.13014126
vn 0.9348735213 -0.3154263496 0.1628426462
v -3.109307766 -18.95463371 7.179775715
vn 0.758257091 -0.459055692 0.4629406929
v -2.180042267 -14.92157841 9.656929016
vn 0.9798666835 -0.1359872669 -0.1461807042
v -1.945905089 -13.90541077 10.28107071
vn 0.7282509208 -0.4726145267 0.4962722361
v -3.622839212 -11.92687511 4.929023743
vn 0.9506887794 -0.02941304818 -0.3087486625
# mm_gid 0
g mmGroup0
f 2//2 4//4 3//3 
f 18//18 2//2 3//3 
f 18//18 3//3 13//13 
f 18//18 13//13 33//33 
f 18//18 33//33 34//34 
f 18//18 34//34 35//35 
f 18//18 35//35 38//38 
f 18//18 38//38 41//41 
f 18//18 41//41 37//37 
f 37//37 36//36 18//18 
f 36//36 39//39 18//18 
f 19//19 18//18 39//39 
f 19//19 39//39 40//40 
f 22//22 19//19 40//40 
f 22//22 40//40 42//42 
f 22//22 42//42 43//43 
f 15//15 4//4 1//1 
f 1//1 12//12 15//15 
f 14//14 15//15 12//12 
f 17//17 14//14 12//12 
f 12//12 11//11 17//17 
f 16//16 17//17 11//11 
f 11//11 18//18 16//16 
f 20//20 16//16 18//18 
f 20//20 18//18 6//6 
f 20//20 6//6 5//5 
f 21//21 18//18 24//24 
f 19//19 24//24 18//18 
f 24//24 19//19 23//23 
f 23//23 19//19 22//22 
f 7//7 18//18 21//21 
f 8//8 18//18 7//7 
f 18//18 8//8 6//6 
f 11//11 12//12 18//18 
f 18//18 12//12 1//1 
f 18//18 1//1 2//2 
f 2//2 1//1 4//4 
# mm_gid 2
g mmGroup2
f 25//25 48//48 44//44 
f 25//25 44//44 45//45 
f 20//20 25//25 45//45 
f 20//20 45//45 49//49 
f 20//20 49//49 46//46 
f 20//20 46//46 47//47 
f 17//17 20//20 47//47 
f 17//17 47//47 28//28 
f 17//17 28//28 26//26 
f 17//17 26//26 27//27 
f 17//17 27//27 29//29 
f 15//15 17//17 29//29 
f 15//15 29//29 30//30 
f 15//15 30//30 31//31 
f 13//13 15//15 31//31 
f 13//13 31//31 32//32 
f 13//13 32//32 33//33 
f 13//13 4//4 15//15 
f 5//5 10//10 20//20 
f 10//10 9//9 20//20 
f 9//9 25//25 20//20 
f 17//17 16//16 20//20 
f 15//15 14//14 17//17 
f 13//13 3//3 4//4 
# mm_gid 18
g mmGroup18
f 23//23 22//22 43//43 
f 23//23 43//43 51//51 
f 23//23 51//51 52//52 
f 24//24 23//23 52//52 
f 24//24 52//52 53//53 
f 25//25 24//24 53//53 
f 25//25 53//53 50//50 
f 25//25 50//50 48//48 
f 25//25 9//9 7//7 
f 25//25 7//7 24//24 
f 7//7 21//21 24//24 
f 9//9 8//8 7//7 
f 9//9 10//10 8//8 
f 10//10 5//5 8//8 
f 5//5 6//6 8//8 
# mm_gid 29
g mmGroup29
f 34//34 33//33 32//32 
f 34//34 32//32 31//31 
f 34//34 31//31 30//30 
f 34//34 30//30 29//29 
f 34//34 29//29 27//27 
f 35//35 34//34 27//27 
f 38//38 35//35 27//27 
f 41//41 38//38 27//27 
f 37//37 41//41 27//27 
f 26//26 37//37 27//27 
f 26//26 28//28 37//37 
f 37//37 28//28 54//54 
f 37//37 54//54 36//36 
f 42//42 36//36 54//54 
f 42//42 54//54 52//52 
f 52//52 51//51 42//42 
f 51//51 43//43 42//42 
f 52//52 54//54 47//47 
f 47//47 46//46 52//52 
f 46//46 53//53 52//52 
f 46//46 49//49 53//53 
f 49//49 50//50 53//53 
f 49//49 45//45 50//50 
f 45//45 44//44 50//50 
f 44//44 48//48 50//50 
f 28//28 47//47 54//54 
f 42//42 39//39 36//36 
f 42//42 40//40 39//39 
